<svg viewBox="0 0 276.2 276.2"><path d="M33.1 2.5C15.3 2.5.9 17 .9 34.8s14.5 32.3 32.3 32.3 32.3-14.5 32.3-32.3S51 2.5 33.1 2.5zM137.7 2.5c-17.8 0-32.3 14.5-32.3 32.3s14.5 32.3 32.3 32.3c17.8 0 32.3-14.5 32.3-32.3S155.5 2.5 137.7 2.5zM243.9 67.1c17.8 0 32.3-14.5 32.3-32.3S261.7 2.5 243.9 2.5 211.6 17 211.6 34.8s14.5 32.3 32.3 32.3zM32.3 170.5c17.8 0 32.3-14.5 32.3-32.3 0-17.8-14.5-32.3-32.3-32.3S0 120.4 0 138.2s14.5 32.3 32.3 32.3zM136.8 170.5c17.8 0 32.3-14.5 32.3-32.3 0-17.8-14.5-32.3-32.3-32.3-17.8 0-32.3 14.5-32.3 32.3 0 17.9 14.5 32.3 32.3 32.3zM243 170.5c17.8 0 32.3-14.5 32.3-32.3 0-17.8-14.5-32.3-32.3-32.3s-32.3 14.5-32.3 32.3c0 17.9 14.5 32.3 32.3 32.3zM33 209.1C15.2 209.1.7 223.6.7 241.4c0 17.8 14.5 32.3 32.3 32.3s32.3-14.5 32.3-32.3-14.5-32.3-32.3-32.3zM137.6 209.1c-17.8 0-32.3 14.5-32.3 32.3 0 17.8 14.5 32.3 32.3 32.3 17.8 0 32.3-14.5 32.3-32.3s-14.5-32.3-32.3-32.3zM243.8 209.1c-17.8 0-32.3 14.5-32.3 32.3 0 17.8 14.5 32.3 32.3 32.3 17.8 0 32.3-14.5 32.3-32.3s-14.5-32.3-32.3-32.3z" class="cat-dot"/></svg>